<svg xmlns="http://www.w3.org/2000/svg" fill="#fff" viewBox="0 0 50 50">
  <path d="M11 33c-.55 0-1 .44-1 1v6.13c0 .55.45 1 1 1h28c.55 0 1-.45 1-1V34c0-.56-.45-1-1-1s-1 .44-1 1v5.13H12V34c0-.56-.45-1-1-1z"/>
  <path d="M25 9.13c-.55 0-1 .45-1 1v21.5l-6.34-6.12c-.4-.37-1.03-.36-1.42.04-.38.4-.37 1.03.03 1.4l8.02 7.76c.04.05.1.07.13.1.06.04.12.1.2.12.1.05.24.07.37.07s.26-.03.38-.08c.06-.03.12-.08.17-.12.05-.03.1-.05.14-.1l8.03-7.75c.4-.4.4-1.02.02-1.42-.38-.4-1-.4-1.4-.02L26 31.65v-21.5c0-.56-.45-1-1-1z"/>
</svg>